<svg width="32" height="32" viewBox="0 0 32 32" fill="none" xmlns="http://www.w3.org/2000/svg">
<g clip-path="url(#clip0_4_44)">
<path d="M9.33333 24C7.86666 24 6.68 25.2 6.68 26.6667C6.68 28.1333 7.86666 29.3333 9.33333 29.3333C10.8 29.3333 12 28.1333 12 26.6667C12 25.2 10.8 24 9.33333 24ZM1.33333 2.66667V5.33334H4L8.8 15.4533L7 18.72C6.78666 19.0933 6.66667 19.5333 6.66667 20C6.66667 21.4667 7.86666 22.6667 9.33333 22.6667H25.3333V20H9.89333C9.70667 20 9.56 19.8533 9.56 19.6667L9.6 19.5067L10.8 17.3333H20.7333C21.7333 17.3333 22.6133 16.7867 23.0667 15.96L27.84 7.30667C27.9467 7.12 28 6.89334 28 6.66667C28 5.93334 27.4 5.33334 26.6667 5.33334H6.94667L5.69333 2.66667H1.33333ZM22.6667 24C21.2 24 20.0133 25.2 20.0133 26.6667C20.0133 28.1333 21.2 29.3333 22.6667 29.3333C24.1333 29.3333 25.3333 28.1333 25.3333 26.6667C25.3333 25.2 24.1333 24 22.6667 24Z" fill="#303030"/>
</g>
<defs>
<clipPath id="clip0_4_44">
<rect width="32" height="32" fill="white"/>
</clipPath>
</defs>
</svg>
