<svg width="21" height="13" viewBox="0 0 21 13" fill="none" xmlns="http://www.w3.org/2000/svg">
<path d="M8.448 4.32C8.24533 3.94667 7.952 3.664 7.568 3.472C7.19467 3.26933 6.752 3.168 6.24 3.168C5.35467 3.168 4.64533 3.46133 4.112 4.048C3.57867 4.624 3.312 5.39733 3.312 6.368C3.312 7.40267 3.58933 8.21333 4.144 8.8C4.70933 9.376 5.48267 9.664 6.464 9.664C7.136 9.664 7.70133 9.49333 8.16 9.152C8.62933 8.81067 8.97067 8.32 9.184 7.68H5.712V5.664H11.664V8.208C11.4613 8.89067 11.1147 9.52533 10.624 10.112C10.144 10.6987 9.53067 11.1733 8.784 11.536C8.03733 11.8987 7.19467 12.08 6.256 12.08C5.14667 12.08 4.15467 11.84 3.28 11.36C2.416 10.8693 1.73867 10.192 1.248 9.328C0.768 8.464 0.528 7.47733 0.528 6.368C0.528 5.25867 0.768 4.272 1.248 3.408C1.73867 2.53333 2.416 1.856 3.28 1.376C4.144 0.885333 5.13067 0.639999 6.24 0.639999C7.584 0.639999 8.71467 0.965333 9.632 1.616C10.56 2.26667 11.1733 3.168 11.472 4.32H8.448Z" fill="#CAAB3D"/>
<path d="M16.9555 12.112C16.2195 12.112 15.5582 11.984 14.9715 11.728C14.3955 11.4613 13.9422 11.0987 13.6115 10.64C13.2808 10.1707 13.1102 9.632 13.0995 9.024H14.6515C14.7048 9.54667 14.9182 9.98933 15.2915 10.352C15.6755 10.704 16.2302 10.88 16.9555 10.88C17.6488 10.88 18.1928 10.7093 18.5875 10.368C18.9928 10.016 19.1955 9.568 19.1955 9.024C19.1955 8.59733 19.0782 8.25067 18.8435 7.984C18.6088 7.71733 18.3155 7.51467 17.9635 7.376C17.6115 7.23733 17.1368 7.088 16.5395 6.928C15.8035 6.736 15.2115 6.544 14.7635 6.352C14.3262 6.16 13.9475 5.86133 13.6275 5.456C13.3182 5.04 13.1635 4.48533 13.1635 3.792C13.1635 3.184 13.3182 2.64533 13.6275 2.176C13.9368 1.70667 14.3688 1.344 14.9235 1.088C15.4888 0.831999 16.1342 0.704 16.8595 0.704C17.9048 0.704 18.7582 0.965333 19.4195 1.488C20.0915 2.01067 20.4702 2.704 20.5555 3.568H18.9555C18.9022 3.14133 18.6782 2.768 18.2835 2.448C17.8888 2.11733 17.3662 1.952 16.7155 1.952C16.1075 1.952 15.6115 2.112 15.2275 2.432C14.8435 2.74133 14.6515 3.17867 14.6515 3.744C14.6515 4.14933 14.7635 4.48 14.9875 4.736C15.2222 4.992 15.5048 5.18933 15.8355 5.328C16.1768 5.456 16.6515 5.60533 17.2595 5.776C17.9955 5.97867 18.5875 6.18133 19.0355 6.384C19.4835 6.576 19.8675 6.88 20.1875 7.296C20.5075 7.70133 20.6675 8.256 20.6675 8.96C20.6675 9.504 20.5235 10.016 20.2355 10.496C19.9475 10.976 19.5208 11.3653 18.9555 11.664C18.3902 11.9627 17.7235 12.112 16.9555 12.112Z" fill="#F7F7F7"/>
</svg>
