<svg width="92" height="18" viewBox="0 0 92 18" fill="none" xmlns="http://www.w3.org/2000/svg">
<path d="M8.448 5.32C8.24533 4.94667 7.952 4.664 7.568 4.472C7.19467 4.26933 6.752 4.168 6.24 4.168C5.35467 4.168 4.64533 4.46133 4.112 5.048C3.57867 5.624 3.312 6.39733 3.312 7.368C3.312 8.40267 3.58933 9.21333 4.144 9.8C4.70933 10.376 5.48267 10.664 6.464 10.664C7.136 10.664 7.70133 10.4933 8.16 10.152C8.62933 9.81067 8.97067 9.32 9.184 8.68H5.712V6.664H11.664V9.208C11.4613 9.89067 11.1147 10.5253 10.624 11.112C10.144 11.6987 9.53067 12.1733 8.784 12.536C8.03733 12.8987 7.19467 13.08 6.256 13.08C5.14667 13.08 4.15467 12.84 3.28 12.36C2.416 11.8693 1.73867 11.192 1.248 10.328C0.768 9.464 0.528 8.47733 0.528 7.368C0.528 6.25867 0.768 5.272 1.248 4.408C1.73867 3.53333 2.416 2.856 3.28 2.376C4.144 1.88533 5.13067 1.64 6.24 1.64C7.584 1.64 8.71467 1.96533 9.632 2.616C10.56 3.26667 11.1733 4.168 11.472 5.32H8.448ZM21.9955 4.072V13H19.2595V11.784C18.9822 12.1787 18.6035 12.4987 18.1235 12.744C17.6542 12.9787 17.1315 13.096 16.5555 13.096C15.8728 13.096 15.2702 12.9467 14.7475 12.648C14.2248 12.3387 13.8195 11.896 13.5315 11.32C13.2435 10.744 13.0995 10.0667 13.0995 9.288V4.072H15.8195V8.92C15.8195 9.51733 15.9742 9.98133 16.2835 10.312C16.5928 10.6427 17.0088 10.808 17.5315 10.808C18.0648 10.808 18.4862 10.6427 18.7955 10.312C19.1048 9.98133 19.2595 9.51733 19.2595 8.92V4.072H21.9955ZM25.3368 3.144C24.8568 3.144 24.4621 3.00533 24.1528 2.728C23.8541 2.44 23.7048 2.088 23.7048 1.672C23.7048 1.24533 23.8541 0.893333 24.1528 0.615999C24.4621 0.327999 24.8568 0.183999 25.3368 0.183999C25.8061 0.183999 26.1901 0.327999 26.4888 0.615999C26.7981 0.893333 26.9528 1.24533 26.9528 1.672C26.9528 2.088 26.7981 2.44 26.4888 2.728C26.1901 3.00533 25.8061 3.144 25.3368 3.144ZM26.6968 4.072V13H23.9608V4.072H26.6968ZM33.6555 10.68V13H32.2635C31.2715 13 30.4982 12.76 29.9435 12.28C29.3888 11.7893 29.1115 10.9947 29.1115 9.896V6.344H28.0235V4.072H29.1115V1.896H31.8475V4.072H33.6395V6.344H31.8475V9.928C31.8475 10.1947 31.9115 10.3867 32.0395 10.504C32.1675 10.6213 32.3808 10.68 32.6795 10.68H33.6555ZM34.6355 8.52C34.6355 7.60267 34.8062 6.79733 35.1475 6.104C35.4995 5.41067 35.9742 4.87733 36.5715 4.504C37.1688 4.13067 37.8355 3.944 38.5715 3.944C39.2008 3.944 39.7502 4.072 40.2195 4.328C40.6995 4.584 41.0675 4.92 41.3235 5.336V4.072H44.0595V13H41.3235V11.736C41.0568 12.152 40.6835 12.488 40.2035 12.744C39.7342 13 39.1848 13.128 38.5555 13.128C37.8302 13.128 37.1688 12.9413 36.5715 12.568C35.9742 12.184 35.4995 11.6453 35.1475 10.952C34.8062 10.248 34.6355 9.43733 34.6355 8.52ZM41.3235 8.536C41.3235 7.85333 41.1315 7.31467 40.7475 6.92C40.3742 6.52533 39.9155 6.328 39.3715 6.328C38.8275 6.328 38.3635 6.52533 37.9795 6.92C37.6062 7.304 37.4195 7.83733 37.4195 8.52C37.4195 9.20267 37.6062 9.74667 37.9795 10.152C38.3635 10.5467 38.8275 10.744 39.3715 10.744C39.9155 10.744 40.3742 10.5467 40.7475 10.152C41.1315 9.75733 41.3235 9.21867 41.3235 8.536ZM48.7749 5.56C49.0949 5.06933 49.4949 4.68533 49.9749 4.408C50.4549 4.12 50.9882 3.976 51.5749 3.976V6.872H50.8229C50.1402 6.872 49.6282 7.02133 49.2869 7.32C48.9455 7.608 48.7749 8.12 48.7749 8.856V13H46.0389V4.072H48.7749V5.56Z" fill="#CAAB3D"/>
<path d="M56.6586 13.112C55.9226 13.112 55.2613 12.984 54.6746 12.728C54.0986 12.4613 53.6453 12.0987 53.3146 11.64C52.984 11.1707 52.8133 10.632 52.8026 10.024H54.3546C54.408 10.5467 54.6213 10.9893 54.9946 11.352C55.3786 11.704 55.9333 11.88 56.6586 11.88C57.352 11.88 57.896 11.7093 58.2906 11.368C58.696 11.016 58.8986 10.568 58.8986 10.024C58.8986 9.59733 58.7813 9.25067 58.5466 8.984C58.312 8.71733 58.0186 8.51467 57.6666 8.376C57.3146 8.23733 56.84 8.088 56.2426 7.928C55.5066 7.736 54.9146 7.544 54.4666 7.352C54.0293 7.16 53.6506 6.86133 53.3306 6.456C53.0213 6.04 52.8666 5.48533 52.8666 4.792C52.8666 4.184 53.0213 3.64533 53.3306 3.176C53.64 2.70667 54.072 2.344 54.6266 2.088C55.192 1.832 55.8373 1.704 56.5626 1.704C57.608 1.704 58.4613 1.96533 59.1226 2.488C59.7946 3.01067 60.1733 3.704 60.2586 4.568H58.6586C58.6053 4.14133 58.3813 3.768 57.9866 3.448C57.592 3.11733 57.0693 2.952 56.4186 2.952C55.8106 2.952 55.3146 3.112 54.9306 3.432C54.5466 3.74133 54.3546 4.17867 54.3546 4.744C54.3546 5.14933 54.4666 5.48 54.6906 5.736C54.9253 5.992 55.208 6.18933 55.5386 6.328C55.88 6.456 56.3546 6.60533 56.9626 6.776C57.6986 6.97867 58.2906 7.18133 58.7386 7.384C59.1866 7.576 59.5706 7.88 59.8906 8.296C60.2106 8.70133 60.3706 9.256 60.3706 9.96C60.3706 10.504 60.2266 11.016 59.9386 11.496C59.6506 11.976 59.224 12.3653 58.6586 12.664C58.0933 12.9627 57.4266 13.112 56.6586 13.112ZM66.8653 4.072C67.5266 4.072 68.1239 4.216 68.6573 4.504C69.1906 4.78133 69.6066 5.20267 69.9053 5.768C70.2146 6.33333 70.3693 7.02133 70.3693 7.832V13H68.9293V8.04C68.9293 7.16533 68.7106 6.49867 68.2733 6.04C67.8359 5.57067 67.2386 5.336 66.4813 5.336C65.7133 5.336 65.0999 5.576 64.6413 6.056C64.1933 6.536 63.9693 7.23467 63.9693 8.152V13H62.5133V1.16H63.9693V5.48C64.2573 5.032 64.6519 4.68533 65.1533 4.44C65.6653 4.19467 66.2359 4.072 66.8653 4.072ZM76.5716 13.144C75.7503 13.144 75.0036 12.9573 74.3316 12.584C73.6703 12.2107 73.1476 11.6827 72.7636 11C72.3903 10.3067 72.2036 9.50667 72.2036 8.6C72.2036 7.704 72.3956 6.91467 72.7796 6.232C73.1743 5.53867 73.7076 5.01067 74.3796 4.648C75.0516 4.27467 75.8036 4.088 76.6356 4.088C77.4676 4.088 78.2196 4.27467 78.8916 4.648C79.5636 5.01067 80.0916 5.53333 80.4756 6.216C80.8703 6.89867 81.0676 7.69333 81.0676 8.6C81.0676 9.50667 80.865 10.3067 80.4596 11C80.065 11.6827 79.5263 12.2107 78.8436 12.584C78.161 12.9573 77.4036 13.144 76.5716 13.144ZM76.5716 11.864C77.0943 11.864 77.585 11.7413 78.0436 11.496C78.5023 11.2507 78.8703 10.8827 79.1476 10.392C79.4356 9.90133 79.5796 9.304 79.5796 8.6C79.5796 7.896 79.441 7.29867 79.1636 6.808C78.8863 6.31733 78.5236 5.95467 78.0756 5.72C77.6276 5.47467 77.1423 5.352 76.6196 5.352C76.0863 5.352 75.5956 5.47467 75.1476 5.72C74.7103 5.95467 74.3583 6.31733 74.0916 6.808C73.825 7.29867 73.6916 7.896 73.6916 8.6C73.6916 9.31467 73.8196 9.91733 74.0756 10.408C74.3423 10.8987 74.6943 11.2667 75.1316 11.512C75.569 11.7467 76.049 11.864 76.5716 11.864ZM84.438 5.848C84.726 5.34667 85.1527 4.93067 85.718 4.6C86.294 4.25867 86.9607 4.088 87.718 4.088C88.4967 4.088 89.2007 4.27467 89.83 4.648C90.47 5.02133 90.9713 5.54933 91.334 6.232C91.6967 6.904 91.878 7.688 91.878 8.584C91.878 9.46933 91.6967 10.2587 91.334 10.952C90.9713 11.6453 90.47 12.184 89.83 12.568C89.2007 12.952 88.4967 13.144 87.718 13.144C86.9713 13.144 86.31 12.9787 85.734 12.648C85.1687 12.3067 84.7367 11.8853 84.438 11.384V17.16H82.982V4.232H84.438V5.848ZM90.39 8.584C90.39 7.92267 90.2567 7.34667 89.99 6.856C89.7233 6.36533 89.3607 5.992 88.902 5.736C88.454 5.48 87.958 5.352 87.414 5.352C86.8807 5.352 86.3847 5.48533 85.926 5.752C85.478 6.008 85.1153 6.38667 84.838 6.888C84.5713 7.37867 84.438 7.94933 84.438 8.6C84.438 9.26133 84.5713 9.84267 84.838 10.344C85.1153 10.8347 85.478 11.2133 85.926 11.48C86.3847 11.736 86.8807 11.864 87.414 11.864C87.958 11.864 88.454 11.736 88.902 11.48C89.3607 11.2133 89.7233 10.8347 89.99 10.344C90.2567 9.84267 90.39 9.256 90.39 8.584Z" fill="#F7F7F7"/>
</svg>
